<?xml version="1.0" standalone="no"?>
<!DOCTYPE svg PUBLIC "-//W3C//DTD SVG 20010904//EN"
 "http://www.w3.org/TR/2001/REC-SVG-20010904/DTD/svg10.dtd">
<svg version="1.0" xmlns="http://www.w3.org/2000/svg"
 width="1000.000000pt" height="1000.000000pt" viewBox="0 0 1000.000000 1000.000000"
 preserveAspectRatio="xMidYMid meet">

<g transform="translate(0.000000,1000.000000) scale(0.100000,-0.100000)"
fill="#000000" stroke="none">
<path d="M1934 5631 c-45 -21 -89 -70 -99 -114 -5 -18 -20 -34 -45 -47 -57
-29 -97 -81 -110 -143 -6 -29 -8 -60 -5 -68 4 -10 -9 -22 -39 -37 -62 -30 -99
-87 -104 -162 -6 -78 10 -120 64 -170 l45 -42 -17 -36 c-29 -63 -30 -122 -1
-185 32 -70 85 -109 154 -112 42 -1 48 -4 56 -31 24 -73 101 -133 173 -134 17
0 51 11 76 24 35 18 61 24 124 25 43 0 95 5 114 11 19 5 54 10 77 10 31 0 46
6 60 23 31 38 142 107 172 107 35 0 61 28 61 65 0 16 18 64 40 106 41 79 83
219 83 279 0 60 -42 200 -83 279 -22 42 -40 90 -40 107 0 37 -27 64 -64 64
-16 0 -44 13 -65 29 -20 15 -47 34 -61 41 -13 7 -33 24 -43 37 -14 17 -28 23
-60 23 -23 0 -58 5 -77 10 -19 6 -71 11 -114 11 -63 1 -89 7 -124 25 -54 29
-93 30 -148 5z m387 -86 c10 -3 19 -18 22 -32 4 -21 -9 -42 -72 -116 l-76 -90
-6 100 c-3 54 -11 109 -18 120 -6 12 -11 25 -11 29 0 8 137 -1 161 -11z m215
-102 c22 -16 30 -30 27 -42 -3 -11 0 -28 6 -38 8 -16 -1 -36 -55 -116 l-64
-97 -130 0 -130 0 0 41 c0 38 8 52 95 154 76 90 100 113 121 113 14 0 33 7 42
15 17 18 32 13 88 -30z m-576 -3 c14 0 39 9 56 19 30 19 54 14 54 -11 0 -19
-67 -48 -110 -48 -43 0 -110 29 -110 48 0 25 24 30 54 11 17 -10 42 -19 56
-19z m717 -152 c31 -51 72 -162 73 -199 0 -18 -8 -29 -25 -37 -14 -6 -25 -16
-25 -22 0 -6 -88 -10 -255 -10 l-255 0 0 45 0 45 144 0 144 0 62 98 c60 93 84
122 102 122 4 0 20 -19 35 -42z m-668 -27 c20 -13 -6 -52 -61 -91 -32 -24 -51
-30 -90 -30 -81 0 -166 52 -139 84 11 13 18 11 53 -15 66 -47 149 -32 194 36
18 27 22 29 43 16z m-80 -261 c38 -19 91 -72 91 -91 0 -25 -30 -16 -68 20 -69
66 -141 64 -202 -5 -19 -22 -37 -34 -45 -30 -23 9 -18 30 18 63 67 65 135 80
206 43z m780 -39 c10 -10 25 -21 32 -23 11 -4 12 -14 2 -62 -12 -58 -66 -178
-88 -196 -23 -19 -42 0 -110 106 l-67 104 -144 0 -144 0 0 45 0 45 250 0 c231
0 251 -1 269 -19z m-195 -208 c51 -78 62 -101 55 -116 -6 -10 -9 -27 -7 -39 2
-15 -10 -30 -46 -55 -46 -31 -50 -32 -67 -17 -10 9 -30 17 -44 17 -20 0 -45
23 -120 112 -87 102 -95 116 -95 154 l0 41 130 0 130 0 64 -97z m-241 -151
c61 -73 74 -94 70 -115 -6 -32 -19 -37 -112 -44 -70 -6 -74 -5 -67 13 18 42
26 92 26 162 0 39 2 72 4 72 2 0 37 -40 79 -88z m-228 -32 c23 -21 24 -26 11
-39 -14 -13 -18 -13 -34 3 -33 29 -89 32 -123 7 -24 -18 -33 -20 -45 -10 -13
10 -12 14 3 32 27 29 53 37 111 34 38 -3 59 -10 77 -27z"/>
<path d="M3072 5454 c-27 -19 -29 -64 -4 -87 15 -13 39 -17 110 -17 l92 0 0
-279 c0 -266 1 -279 21 -305 25 -32 70 -35 99 -6 19 19 20 33 20 305 l0 285
93 0 c98 0 120 8 132 47 4 17 -1 29 -19 48 l-25 25 -248 0 c-209 0 -252 -2
-271 -16z"/>
<path d="M6460 5450 c-19 -19 -20 -33 -20 -348 0 -306 1 -330 18 -345 23 -21
52 -22 78 -3 18 13 19 31 24 242 l5 227 81 -129 c90 -144 120 -174 157 -157
14 7 60 67 108 142 46 71 87 130 92 131 4 0 7 -98 7 -218 0 -199 2 -220 18
-235 19 -18 59 -22 78 -9 31 20 34 55 34 351 0 165 -4 311 -10 325 -11 31 -45
50 -74 42 -16 -4 -60 -62 -142 -186 -65 -99 -122 -180 -125 -180 -4 0 -57 78
-119 173 -62 94 -119 178 -128 185 -23 18 -59 15 -82 -8z"/>
<path d="M3778 5296 c-84 -23 -158 -96 -184 -182 -30 -99 -10 -218 47 -287 84
-101 271 -128 379 -55 43 30 54 49 46 81 -9 38 -44 44 -97 16 -93 -48 -201
-23 -246 57 l-22 39 183 5 c166 5 186 7 206 25 61 55 -33 244 -144 290 -50 21
-117 25 -168 11z m139 -126 c30 -18 70 -76 60 -86 -2 -3 -65 -3 -140 -2 l-136
3 16 34 c33 68 132 93 200 51z"/>
<path d="M4485 5305 c-5 -2 -22 -6 -38 -9 -15 -4 -45 -22 -66 -42 -38 -33 -40
-34 -43 -13 -2 12 -15 31 -30 42 -23 17 -31 19 -53 9 -14 -7 -30 -23 -35 -38
-14 -37 -13 -450 1 -477 23 -43 66 -50 99 -17 18 18 20 33 20 180 0 124 3 168
15 190 38 73 173 82 204 13 7 -14 11 -89 11 -187 0 -150 2 -165 21 -190 25
-32 61 -34 90 -5 20 20 21 29 17 217 -3 188 -4 199 -28 241 -14 25 -38 53 -55
62 -29 17 -110 32 -130 24z"/>
<path d="M4965 5301 c-48 -12 -91 -38 -119 -71 -22 -26 -26 -41 -26 -92 0 -56
2 -63 38 -98 28 -29 57 -44 121 -64 123 -39 141 -50 141 -93 0 -72 -157 -68
-224 6 -24 26 -60 27 -86 1 -29 -29 -25 -48 20 -91 94 -90 275 -92 360 -4 27
28 34 44 38 88 8 98 -29 138 -168 182 -115 36 -146 72 -107 123 5 7 32 12 62
12 41 0 61 -6 96 -30 51 -35 70 -37 92 -12 23 26 21 45 -8 80 -42 50 -158 82
-230 63z"/>
<path d="M5527 5300 c-135 -34 -216 -137 -217 -276 0 -124 45 -206 142 -260
47 -26 62 -29 138 -29 95 0 141 18 199 76 73 73 101 202 67 306 -43 130 -197
215 -329 183z m141 -130 c91 -55 106 -198 29 -278 -99 -103 -267 -25 -267 124
0 53 37 123 79 151 44 29 113 31 159 3z"/>
<path d="M6210 5299 c-19 -6 -51 -23 -71 -39 l-37 -29 -6 25 c-9 33 -49 48
-84 31 l-27 -12 -3 -249 c-2 -221 0 -251 14 -268 22 -23 66 -23 87 0 14 16 17
44 17 173 0 130 3 161 19 196 26 56 70 79 121 64 50 -15 57 -14 80 9 59 59
-16 126 -110 99z"/>
<path d="M7445 5299 c-158 -38 -240 -246 -165 -416 28 -63 64 -100 125 -129
82 -39 183 -27 241 27 21 19 21 19 32 -6 13 -28 57 -43 81 -28 36 22 41 54 41
264 0 236 -4 264 -36 286 -20 13 -29 13 -54 3 -17 -7 -30 -15 -30 -19 0 -3 -4
-12 -8 -19 -7 -10 -19 -7 -53 12 -52 29 -119 38 -174 25z m156 -132 c46 -30
70 -84 70 -151 0 -83 -43 -148 -113 -166 -120 -33 -218 92 -178 229 10 37 53
88 85 101 39 17 101 11 136 -13z"/>
<path d="M8159 5297 c-20 -8 -50 -23 -67 -35 -37 -27 -38 -27 -45 -2 -3 11
-17 25 -31 31 -23 11 -31 10 -54 -8 l-27 -20 -3 -346 c-2 -336 -2 -347 18
-367 26 -26 62 -26 86 1 16 17 20 40 22 128 l4 107 55 -28 c172 -87 354 42
354 250 1 106 -18 160 -75 220 -62 66 -164 96 -237 69z m121 -130 c51 -33 72
-77 72 -146 0 -79 -30 -133 -89 -162 -126 -61 -246 70 -203 220 10 37 53 88
85 101 39 17 101 11 135 -13z"/>
</g>
</svg>
